<svg width="141" height="142" viewBox="0 0 141 142" xmlns="http://www.w3.org/2000/svg" xmlns:xlink="http://www.w3.org/1999/xlink"><title>anahatha_chakra_logo</title><defs><path id="a" d="M.109 279.968h279.725V.023H.11v279.945z"/><path d="M141.573 208.156c-38.577 0-69.85-30.798-69.85-68.79 0-37.99 31.273-68.788 69.85-68.788 38.576 0 69.848 30.798 69.848 68.789s-31.272 68.789-69.848 68.789z" id="c"/><path d="M176.246 139.148l-18.318 32.453H122.45l-18.722-33.012 18.488-32.592 35.888.04 18.143 33.111zm22.195-34.362l-39.628-.02-18.532-32.33-18.895 32.293-39.266-.04 19.431 33.94-20.227 34.572 40.039.033 18.462 32.245 18.755-32.213 39.52.033-19.616-34.218 19.957-34.295z" id="d"/></defs><g fill="none" fill-rule="evenodd"><g transform="translate(-71 -68)"><mask id="b" fill="#fff"><use xlink:href="#a"/></mask><g mask="url(#b)"><use fill-opacity="0" fill="#FFFFFE" xlink:href="#c"/><path stroke="#AFAFAF" stroke-width="2.5" d="M141.573 206.906c37.89 0 68.598-30.243 68.598-67.54 0-37.295-30.708-67.538-68.598-67.538s-68.6 30.243-68.6 67.539c0 37.296 30.71 67.539 68.6 67.539z"/></g></g><g stroke="#AFAFAF" transform="translate(-71 -68)"><use stroke-width="4" xlink:href="#d"/><use xlink:href="#d"/></g><path d="M81.355 74.37c-.306 5.307-13.542 11.723-13.542 11.723-4.91 2.638-10.625 2.177-14.71-2.967-3.28-5.187.559-8.243 4.354-12.86 9.634-8.865 5.71-16.064 5.71-16.064h18.788s.107 7.895-.6 20.169zm13.877-19.846l-5.205-7.842h-45.53c.795 1.055 0 0 4.553 7 3.198.027 4.554.024 4.554.024s4.715 3.98 0 8.623c-4.716 4.643-12.578 13.86-9.652 20.907 2.928 7.045 14.434 17.841 28.84 8.879 2.963-1.844 7.616-5.78 7.628-5.642 0 0 1.4-.139 1.416 0 .028.227-.034 16.94-.034 16.94.335-4.615 6.146-1.767 6.146 4.48h1.745l.009-53.37h5.53z" stroke="#AFAFAF" stroke-width="4"/></g></svg>