<svg width="179" height="263" viewBox="0 0 179 263" xmlns="http://www.w3.org/2000/svg"><title>Rolfing-Little-Boy-black-and-white-vector [Konvertiert]</title><g fill="none" fill-rule="evenodd"><g fill="#9B9B9B"><path d="M126.678 53.166c1.563-5.568 2.895-7.9 1.01-10.572-3.573-5.066-10.889-9.014-9.88-19.498.527-5.49 4.328-12.41 9.47-15.798 3.792-2.497 10.174-2.574 15.34-1.964 5.229.618 11.724 1.55 15.569 4.598 2.248 1.783 3.427 2.787 4.897 6.086.637 1.43.462 2.273.462 4.103 0 1.864-.357 3.285-.555 4.958-.373 3.165-.567 7.312 1.664 10.325.832 1.122-.472 1.82-1.64 2.614-.87.59-.645 1.419-.785 2.524-.26 2.038-.852 4.1-2.287 5.5-1.707 1.666-7.926.54-10.972.54-4.249 0-3.41 4.602-3.06 6.267.514 2.46 6.475 11.661 8.304 14.514 3.514 5.483 3.307 6.215 6.098 12.116 1.345 4.266 1.47 4.714 1.664 8.891.693 14.92-4.759 24.036-3.141 38.713.685 6.216 1.674 17.553 1.108 25.03-.413 5.484-1.058 11.398-3.325 20.918-1.57 4.595-3.29 9.226-4.75 13.904-.578 1.851-.17 4.227-.795 6.943-1.113 4.843-3.854 8.882-4.713 14.946-.6 4.442-1.478 12.54-1.478 17.31 0 3.962.23 8.044.23 12.082.085 3.614.677 6.405 3.448 8.68 4.715 3.87 10.405 6.51 15.54 7.64 1.695.372 2.635-.423 2.578 1.03-.015.376-.63.894-1.592.655-.457-.114-.876.321-1.308.296-.535-.033-1.12-.207-1.6-.105-.703.149-1.114.75-1.876.681-.6-.055-1.159-.526-1.663-.415-.679.15-.783.586-1.874.608-.987.02-1.764-.737-2.45-.489-.376.137-.843.41-1.131.412-1.764.017-3.275.174-4.738.005-2.38-.276-5.126-1.148-7.56-.947l-5.776.477c-4.19.345-5.411-2.993-2.896-6.967.962-1.52 1.438-8.376 1.301-9.578-.136-1.202-.191-1.844-.276-2.254-1.571-7.034-2.984-15.285-3.31-22.714-.266-6.031 1.637-8.266 2.154-11.526 1.286-8.112 1.13-21.215.786-35.724-.082-3.451-1.335-4.752-3.764-7.72-2.177-2.66-4.997-7.5-5.477-9.614-1.104-4.867-.325-11.848.661-16.543.812-3.866 1.046-5.752 1.696-8.303 1.083-4.247 1.617-5.131 1.617-9.64 0-3.321-.99-7.804-1.363-11.18-.82-7.415-3.141-17.905-3.442-21.391-.3-3.488-.483-6.03-.07-10.804.72-8.296 2.386-14.052 3.95-19.62z" fill-rule="nonzero"/><path d="M140.446 25.8c-3.007.226-4.944 2.868-4.944 5.634 0 1.68.415 4.018 1.895 5.904.574.734 2.122 2.02 2.788 2.37.119.062.266-3.431-.017-3.43-.357 0-3.566-.102-2.77-5.337.328-2.164 2.556-2.584 2.882-2.456.02.007.018-2.246.166-2.684zM141.508 158.605l.185 10.865c.217.635 4.145 2.506 5.174 2.12 1.654-.621 3.016-3.63 3.604-5.41 1.784-5.408 1.132-9.85.508-15.463-1-9.006-3.25-21.08-4.713-29.327-2.126-11.99-1.651-20.656-.785-30.088.339-3.687.961-8.195.846-12.766-.19-7.489-.994-14.932-3.48-17.574-1.075-.919-2.064-2.496-3.28-2.706-3.872-.667-1.125 2.043.923 3.057.68.337 2.529 3.048 3.068 4.933 1.088 3.804 1.695 8.49 1.335 15.45-.252 4.887-1.187 13.34-1.58 21.697-.357 7.609.09 7.689.505 11.69 1.265 7.938 2.83 16.56 4.112 23.688.665 3.701 1.842 13.435 2.111 19.018.098 2.025-.198 5.329-.309 5.998-.175 1.048-2.323 6.136-3.142 6.044-1.076-.12-4.854-1.754-3.742-2.84.636-.62 1.413-1.587 1.293-2.974-.168-1.953-.856-3.693-2.633-5.412zM139.824 153.923c-2.234 0-5.292 1.28-6.84 2.983-.85.933-2.394 2.694-3.235 4.279 1.503 1.755.807 1.107 1.263 1.673.417-.9.505-1.383 1.093-2.11 1.42-1.752 5.063-4.76 7.813-4.836-.167-3.252-.094.685-.094-1.989zM128.433 81.79l-2.772.09c2.252 1.106 2.902 9.653 2.656 16.322-.189 5.14.565 8.368.763 11.722l.323 5.495c.251 4.256 1.16 3.909-2.012 3.869-.198.651-.074.528-.178 1.502.774-.003.819-.006 1.636-.006 2.096 0 1.11.202 2.171 3.156 2.347 6.524 1.243 3.464 2.588 7.348.74 1.958 1.663 5.152 2.356 6.675 1.02 2.24 1.36 3.372 2.449 5.496.624 1.22 1.088 2.557 1.476 3.785 0-1.727-.1-.204.03-6.018a126.34 126.34 0 0 1-6.496-15.257c-1.438-4.094-1.632-5.961-2.138-9.469-.482-3.338-1.063-9.114-1.121-13.236-.108-7.46.122-15.598-1.73-21.474z"/><path d="M150.825 150.762c4.37-.74 5.622-.811 9.363-.45-.175.918-.23 1.849-.23 2.78-1.6-1.224-5.848-.707-8.856-.21-.063-.271-.09-1.94-.277-2.12zM158.707 119.275l-12.972-.001v1.465l12.926-.001z"/></g><path fill="#9B9B9B" fill-rule="nonzero" d="M104.501.826h35.776l-.008 2.03H104.5z"/><path fill="#9B9B9B" fill-rule="nonzero" d="M106.35.826l.39 261.386-2.338.013L104.27.838zM142.545.816l36.108-.148V2.79l-36.114-.002z"/><path fill="#9B9B9B" fill-rule="nonzero" d="M104.297 52.274l22.64-.013-.604 2.128-22.036-.003zM145.787 52.22l32.866.026v2.196l-32.168-.056zM104.76 80.024h17.795l.124 2.159-17.918.111zM160.511 80.115l18.142.027v2.03l-17.519-.009zM104.501 100.904l21.224.084.26 1.946-21.484-.002zM161.216 101.084h16.744v2.03l-17.069-.003zM104.963 126.825h20.775l-.424 2.028h-20.35zM158.805 126.825h19.617v2.028h-19.4zM104.354 165.594h28.195l.32 2.028h-28.514zM158.211 165.594h19.519v2.028h-19.916zM104.372 202.446h27.893l-.332 2.028h-27.56zM148.029 202.446h29.608v2.028h-30.294zM141.693 260.261h35.714v2.03h-35.714z"/><path fill="#9B9B9B" fill-rule="nonzero" d="M176.575.668h2.078V262.29h-2.078z"/><path d="M141.43-20.516V1.217"/><path fill="#9B9B9B" d="M126.937 52.261l18.85-.042.698 2.167-20.155.015zM122.555 80.024l37.956.091.623 2.048-38.455.02zM125.737 126.83l33.068-.005.216 2.028h-33.707zM132.549 165.594h25.662l-.397 2.028h-24.946zM132.265 202.446h15.764l-.686 2.028h-15.41z"/><path fill="#9B9B9B" d="M142.545.816l-.852 261.474-2.264-.013.848-261.45z"/><path fill="#9B9B9B" fill-rule="nonzero" d="M104.443 260.26l34.983.015.003 2-34.986.015z"/><path fill="#9B9B9B" d="M125.725 100.988l35.49.096-.324 2.027-34.906-.177z"/><g><path d="M51.948 172.919c.887-.029 1.011 4.53 1.843 8.67.13 3.566 1.885 3.757-.503 10.037-.221.964-.979 4.599-2.465 7.295-1.27 2.305-3.026 4.554-4.286 6.638-1.854 3.066-2.412 5.676-2.905 5.746-.813-.113.324-4.821 1.656-10.185a184.269 184.269 0 0 1 3.212-5.018c.703-1.951.799-3.681.884-5.15.076-1.33.25-2.234-.289-4.47-.26-1.152-.197-1.609.312-4.138 0-.941.45-2.339.715-3.47.678-2.89 1.229-5.952 1.826-5.955zM44.325 232.424c-.282.313 3.977 5.858 6.214 7.867 2.165 1.946 1.498 2.49 5.822 2.05 5.714-.58.31-3.55-2.287-4.666-1.976-.85-3.734-1.39-5.544-2.548-1.487-.95-3.595-2.355-4.205-2.703zM27.577 233.664l.231.563c-.34-1.036-1.109-.347-1.109.383 0 .506-.632 1.126-.762 1.555-.33 1.094-.292 1.961-.092 2.795.125.52.813 1.25 1.362.586.238-.287.323-1.329.323-1.736 0-.485-.048-.788.14-1.352.415-1.252.47-1.143-.093-2.794z" fill="#9B9B9B" fill-rule="nonzero"/><path d="M24.459 126.036h16.748c3.022 4.734 9.901 13.186 9.47 20.962-.46 8.33 5.984 11.045-5.89 10.706-5.46.158-12.65 2.06-16.748 4.058-3.075 2.472-3.298 2.11-4.583 2.24-.214.15-.99-2.205-1.885-4.79-1.935-5.588-2.605-7.866-2.75-14.644-.076-3.657.336-7.044 1.664-10.237 1.365-3.278 2.31-4.887 3.974-8.295z"/><path d="M61.078 144.642c1.49 4.422 2.079 8.261 2.075 11.667-.003 2.822-.214 5.389-1.572 8.496-.862 1.972-2.627 1.078-3.619-.855-.154-.302.06-.59-.068-.773-.735-1.05-.487-.74-1.262-.774-.512-.023-.576-.845-1.086-.722-.27.064-.412-.66-.728-.505-.478.235-.658-.293-.859-.159-.319.214-.907.51-.627.803.208.217-.533.327-.253.596.222.214-.225.364-.427.78-.23.472-.409 1.11-.54 1.548-1.311 4.322-2.707 9.404-3.72 12.458-1.39 4.184-.114 12.074-.855 16.026-3.47 6.78-5.97 11.225-6.492 19.768-.104 1.71-.266 4.77-.186 8.188.096 4.124.961 8.722 1.872 12.188 1.168 3.495 5.753 7.394 8.332 9.954.24.237.446-.308 1.137.646.274.378.322.024.607.19.367.214.833.752 1.015.865.795.49.328.953 1.32 1.24 3.095.891 6.284 2.612 2.143 4.099-4.038.627-7.727 1.767-11.644 1.09-1.663-.78-2.473-2.022-4.72-2.251-5.973-.608-7.267-2.243-11.103-2.533-3.548-.145-1.87-5.21-1.316-6.944 1.376-4.302-.751-17.264-1.178-21.278-.66-6.206-1.456-11.225-.901-17.668.585-3.355 2.518-6.838 2.518-10.078-1.168-4.568-2.217-7.864-2.98-13.609-.116-1.998-2.085-8.938-2.75-10.833-2.498-7.132-6.723-11.665-5.682-21.518.599-5.672.399-10.128 3.672-15.62 1.633-2.738 2.677-5.625 4.155-6.986 1.556-.687.83-1.221.323-2.61-.332-.906-.391-1.454.413-2.371 1.826-2.081 1.232-6.333.127-10.683-.688-2.705-2.345-7.055-3.077-9.228-1.312-3.893-2.367-6.572-3.418-9.07-.987-2.347-1.746-4.533-2.586-7.417-1.779-3.726-1.103-9.406-.91-14.932.26-2.094.45-4.352 1-6.418.828-3.12 2.24-6.036 4.067-9.13 2.065-3.495 2.167-5.679.606-8.43-1.402-2.472-3.308-5.96-4.312-9.472-.718-2.512-1.167-5.242-1.233-7.767-.025-.988.203-1.944.203-2.844 0-2.651.903-4.744 1.668-6.658.719-1.8 1.361-3.503 2.399-4.84 2.696-3.477 4.69-5.644 9.92-6.173 1.564-.157 3.078-.664 4.728-.654 3.377.02 6.851.287 10.25 1.205 6.261 1.69 12.182 4.745 15.848 8.208 2.24 2.115 4.12 3.386 4.038 8.664-.077 4.92-1.618 9.44-.86 13.237.269 1.347 1.328 2.972 1.23 3.76-.113.9-1.239 1.253-2.197 1.574-1.043.348-1.437 1.077-1.464 1.477-.185 2.786-1.775 4.671-3.264 6.19-.807.821-1.579 1.284-3.233 1.547-1.87.297-4.919-.61-7.066.04-2.182.66-2.616 1.411-2.859 4.14-.095 1.077.832 3.381 1.794 5.05 4.453 5.498 9.03 17.142 11.335 25.52.543 1.975 1.837 7.312 2.41 10.712 1.979 11.752 4.042 17.578 4.042 30.145-.37 1.94-1.455 3.506-1.455 5.77 0 1.727.284 2.414.351 3.044.067.63.055 1.022-.812 2.52-.346.599-1.306.405-1.69 1.176-.544 1.095-1.815 1.751-1.595 3.224.178 1.206.766 3.075 1.001 3.998zm-36.62-18.606c-1.664 3.408-2.608 5.017-3.973 8.296-1.328 3.193-1.741 6.58-1.663 10.237.144 6.779.813 9.055 2.75 14.643.894 2.585 1.67 4.94 1.884 4.79 1.285-.13 1.508.232 4.583-2.24 4.098-1.996 11.288-3.899 16.748-4.057 11.874.339 5.43-2.376 5.89-10.706.43-7.776-6.448-16.228-9.47-20.962H24.459v-.001z" fill="#9B9B9B" fill-rule="nonzero"/><path d="M58.725 138.423c-2.142-4.372-6.857-12.835-9.273-20.184-.414-1.26-1.232-4.782-2.005-8.538-.933-4.535-1.777-9.285-1.736-11.344.083-4.199-.97-11.292-.232-12.735l.301-6.536c.051-1.1.286-7.577.07-7.647-.54-3.647-1.653-5.395-3.376-8.088-.401-.628-3.376-3.457-2.334-4.376.22-.194.956-.108 1.687.489 1.84 1.94 3.629 4.877 4.768 8.45 1.771 7.58 1.149 17.476 1.149 21.515.107 4.567-.367 12.212 1.353 19.071 1.36 8.73 2.666 11.26 4.471 15.279 1.408 3.236 1.885 4.023 2.45 5.152.887 1.998 4.842 1.955 4.715 4.429-.022.994-.926 1.312-1.063 1.898-.354 1.505 2.05-1.22 2.728-1.22.972 0 1.154.855.682 1.593-1.293.708-2.346 1.626-2.346 2.203-.185.768-.037.303.6.452-.138.588-.08 3.501-.88 3.78-.135.044-1.443-3.058-1.73-3.643zM31.69 88.552c-.176-2.23-.53-3.19.198-3.308.52-.084 1.547 1.95 1.673 3.87l.924 14.088c.333 5.071 2.32 11.144 3.65 15.71 1.07 3.059 2.81 5.369 1.714 5.382-2.139.026-8.037.164-12.04.164-2.637 0-.586-3.634-1.063-4.712-.112-.253-1.751-1.734.6-2.952 2.716-1.334 6.53 2.719 9.611 3.36.25-.807-1.166-2.86-1.69-5.107-.82-3.506-1.545-6.593-2.006-9.094-.867-4.69-1.687-12.712-1.571-17.401z" fill="#9B9B9B"/></g><g><path fill="#9B9B9B" fill-rule="nonzero" d="M77.358 165.143l7.277-4.058v33.247l-7.508 5.634zM73.431 202.22l3.576-.737 1.984-2.19 1.615 1.89-.36 55.91-6.337 3.05zM7.134 47.371H.204L.087 70.137l11.55 8.085v-26.68l-4.62.112zM17.644 120.514H3.784v38.092l9.625 6.77 3.542-.008v-1.803h-1.385l-1.849-2.367V126.6l.924-1.014h3.003zM70.314 124.796h2.31v39.748h-2.31z"/><path fill="#9B9B9B" fill-rule="nonzero" d="M72.277 160.409l11.665.451 1.779-1.465-13.444-.677zM62.448 102.077l19.731 1.998 1.07-1.706-21.279-1.972z"/><path fill="#9B9B9B" fill-rule="nonzero" d="M81.979 125.698l7.97-5.523-.579-22.54-7.622 5.297zM7.019 95.607l7.569 3.434-.062-17.296-7.855-4.283zM17.298 99.642h2.31v25.042h-2.31zM70.776 51.88h1.733v26.934h-1.733zM80.016 78.702h1.733v21.526h-1.733z"/><path fill="#9B9B9B" fill-rule="nonzero" d="M16.342 78.251l-.001 1.86-1.815.029-1.27 1.83-3.12-2.028 1.503-1.72zM81.8 78.544l-24.3.045-.007 1.769h24.255zM81.196 98.65H62.257l.006 1.774 19.485-.196zM23.551 98.425H13.547l2.506 1.578h7.51z"/><path fill="#9B9B9B" fill-rule="nonzero" d="M62.348 99.887l.004 1.355 9.578.676-2.476-2.705zM89.37 97.635h-8.546v1.015l8.085.225zM81.962 124.092l-19.041.028.09 1.578h18.968zM24.984 124.12h-10.92l.052 1.465h10.92z"/><path d="M12.55 164.484L50.91 129.64M19.454 164.785l34.227-31.091M64.735 130.881l6.876-6.245M56.619 145.65l14.895-13.53M59.67 149.36l11.752-10.675M58.606 157.48l13-11.809M58.46 165.296l13.22-12.01M65.39 164.935l6.309-5.73M13.302 131.667l7.192-6.534M13.218 137.96l13.756-12.496M12.683 145.082l21.433-19.469M13.009 152.025l28.841-26.2M12.495 158.425l36.286-32.96M28.575 164.424l25.192-22.885M36.403 164.363l19.454-17.672M43.306 164.664l15.624-14.192"/><path fill="#9B9B9B" fill-rule="nonzero" d="M16.49 164.692h2.31v37.696h-2.31zM75.858 164.466h2.31v36.966h-2.31zM10.484 200.53h1.849v59.055h-1.85zM72.162 201.206h1.848v58.913h-1.848z"/><path fill="#9B9B9B" fill-rule="nonzero" d="M26.295 200.53h-15.58l.01 1.979h15.578zM77.661 201.03l-28.108-.057-.028 1.73 28.148.172zM73.185 258.312H10.5l-.009 1.807h62.995zM22.58 163.59h-8.736l.007 1.798h8.7zM7.019.826h71.033V51.94H46.317l-.004-1.836 25.964-.028V2.517H9.097v47.56h11.94l-.02 1.804-13.998-.002z"/><path fill="#9B9B9B" d="M16.342 78.251l41.158.338-.007 1.769-41.152-.247zM22.58 163.59l31.458.601-.06 1.768-31.427-.571zM26.323 200.53l23.23.443-.014 1.73-23.236-.194z"/><path fill="#9B9B9B" fill-rule="nonzero" d="M78.288 164.146l-26 .012-.005 1.77 25.951.031z"/><path fill="#9B9B9B" d="M21.037 50.076l25.276.028.004 1.836-25.3-.06z"/></g></g></svg>