<svg width="37" height="37" viewBox="0 0 37 37" xmlns="http://www.w3.org/2000/svg"><title>Shape_hide</title><path d="M0 18.5C0 28.72 8.28 37 18.5 37S37 28.72 37 18.5 28.72 0 18.5 0 0 8.28 0 18.5zM18.5 2.387c8.855 0 16.113 7.169 16.113 16.113 0 8.855-7.169 16.113-16.113 16.113-8.855 0-16.113-7.169-16.113-16.113 0-8.855 7.169-16.113 16.113-16.113zm6.46 16.747l-8.586 8.579a.896.896 0 0 1-1.268 0l-.53-.53a.896.896 0 0 1 0-1.268l7.43-7.415-7.422-7.422a.896.896 0 0 1 0-1.269l.53-.53a.896.896 0 0 1 1.267 0l8.587 8.58a.912.912 0 0 1-.008 1.275z" fill="#FFF" fill-rule="nonzero"/></svg>