<svg width="37" height="37" viewBox="0 0 37 37" xmlns="http://www.w3.org/2000/svg"><title>Shape_show</title><path d="M18.5 0C8.28 0 0 8.28 0 18.5S8.28 37 18.5 37 37 28.72 37 18.5 28.72 0 18.5 0zm16.113 18.5c0 8.855-7.169 16.113-16.113 16.113-8.855 0-16.113-7.169-16.113-16.113 0-8.855 7.169-16.113 16.113-16.113 8.855 0 16.113 7.169 16.113 16.113zm-15.479 6.46l8.579-8.586a.896.896 0 0 0 0-1.268l-.53-.53a.896.896 0 0 0-1.268 0l-7.415 7.43-7.422-7.422a.896.896 0 0 0-1.269 0l-.53.53a.896.896 0 0 0 0 1.267l8.58 8.587a.912.912 0 0 0 1.275-.008z" fill="#FFF" fill-rule="nonzero"/></svg>